<svg xmlns="http://www.w3.org/2000/svg" width="880" height="36" viewBox="0 0 880 36" role="img"><title>04 / ACTIVITY</title><rect width="880" height="36" fill="#0B0B0A"/><rect x="0" y="13" width="10" height="10" fill="#FFB000"/><path fill="#E8E4D8" d="M28 4h12v4h-12zM24 8h4v4h-4zM40 8h4v4h-4zM24 12h4v4h-4zM36 12h8v4h-8zM24 16h4v4h-4zM32 16h4v4h-4zM40 16h4v4h-4zM24 20h8v4h-8zM40 20h4v4h-4zM24 24h4v4h-4zM40 24h4v4h-4zM28 28h12v4h-12zM60 4h4v4h-4zM56 8h8v4h-8zM52 12h4v4h-4zM60 12h4v4h-4zM48 16h4v4h-4zM60 16h4v4h-4zM48 20h20v4h-20zM60 24h4v4h-4zM60 28h4v4h-4zM112 4h4v4h-4zM112 8h4v4h-4zM108 12h4v4h-4zM104 16h4v4h-4zM100 20h4v4h-4zM96 24h4v4h-4zM96 28h4v4h-4zM148 4h12v4h-12zM144 8h4v4h-4zM160 8h4v4h-4zM144 12h4v4h-4zM160 12h4v4h-4zM144 16h20v4h-20zM144 20h4v4h-4zM160 20h4v4h-4zM144 24h4v4h-4zM160 24h4v4h-4zM144 28h4v4h-4zM160 28h4v4h-4zM172 4h16v4h-16zM168 8h4v4h-4zM168 12h4v4h-4zM168 16h4v4h-4zM168 20h4v4h-4zM168 24h4v4h-4zM172 28h16v4h-16zM192 4h20v4h-20zM200 8h4v4h-4zM200 12h4v4h-4zM200 16h4v4h-4zM200 20h4v4h-4zM200 24h4v4h-4zM200 28h4v4h-4zM216 4h20v4h-20zM224 8h4v4h-4zM224 12h4v4h-4zM224 16h4v4h-4zM224 20h4v4h-4zM224 24h4v4h-4zM216 28h20v4h-20zM240 4h4v4h-4zM256 4h4v4h-4zM240 8h4v4h-4zM256 8h4v4h-4zM240 12h4v4h-4zM256 12h4v4h-4zM240 16h4v4h-4zM256 16h4v4h-4zM240 20h4v4h-4zM256 20h4v4h-4zM244 24h4v4h-4zM252 24h4v4h-4zM248 28h4v4h-4zM264 4h20v4h-20zM272 8h4v4h-4zM272 12h4v4h-4zM272 16h4v4h-4zM272 20h4v4h-4zM272 24h4v4h-4zM264 28h20v4h-20zM288 4h20v4h-20zM296 8h4v4h-4zM296 12h4v4h-4zM296 16h4v4h-4zM296 20h4v4h-4zM296 24h4v4h-4zM296 28h4v4h-4zM312 4h4v4h-4zM328 4h4v4h-4zM312 8h4v4h-4zM328 8h4v4h-4zM316 12h4v4h-4zM324 12h4v4h-4zM320 16h4v4h-4zM320 20h4v4h-4zM320 24h4v4h-4zM320 28h4v4h-4z"/><rect x="352" y="17" width="528" height="2" fill="#2E2D29"/></svg>